<svg width="496" height="541" viewBox="0 0 496 541" fill="none" xmlns="http://www.w3.org/2000/svg">
<path d="M336.254 438.246H41.0657C38.0215 438.246 35.5449 435.786 35.5449 432.763V16.4801C35.5449 13.4568 38.0215 10.9973 41.0657 10.9973H336.254C339.298 10.9973 341.775 13.4568 341.775 16.4801V432.763C341.775 435.787 339.298 438.246 336.254 438.246V438.246ZM41.0657 13.0747C39.1749 13.0747 37.6368 14.6025 37.6368 16.4801V432.763C37.6368 434.641 39.1751 436.169 41.0657 436.169H336.254C338.145 436.169 339.683 434.641 339.683 432.763V16.4801C339.683 14.6025 338.145 13.0747 336.254 13.0747H41.0657ZM324.532 426.649H54.6266C51.5823 426.649 49.1058 424.189 49.1058 421.166V28.3823C49.1058 25.3589 51.5823 22.8994 54.6266 22.8994H324.532C327.576 22.8994 330.053 25.3589 330.053 28.3823V421.166C330.053 424.189 327.576 426.649 324.532 426.649ZM54.6266 24.9769C52.7358 24.9769 51.1976 26.5047 51.1976 28.3823V421.166C51.1976 423.044 52.736 424.572 54.6266 424.572H324.532C326.423 424.572 327.961 423.044 327.961 421.166V28.3823C327.961 26.5045 326.423 24.9769 324.532 24.9769H54.6266Z" fill="#BFBAF5"/>
<path d="M324.532 426.649H54.6265C51.5823 426.649 49.1057 424.19 49.1057 421.166V28.3823C49.1057 25.359 51.5823 22.8994 54.6265 22.8994H324.532C327.576 22.8994 330.053 25.359 330.053 28.3823V421.166C330.053 424.19 327.576 426.649 324.532 426.649ZM54.6265 24.9769C52.7357 24.9769 51.1976 26.5047 51.1976 28.3823V421.166C51.1976 423.044 52.7359 424.572 54.6265 424.572H324.532C326.423 424.572 327.961 423.044 327.961 421.166V28.3823C327.961 26.5045 326.423 24.9769 324.532 24.9769H54.6265Z" fill="#BFBAF5"/>
<path d="M324.532 426.649H54.6265C51.5823 426.649 49.1057 424.19 49.1057 421.166V28.3823C49.1057 25.359 51.5823 22.8994 54.6265 22.8994H324.532C327.576 22.8994 330.053 25.359 330.053 28.3823V421.166C330.053 424.19 327.576 426.649 324.532 426.649ZM54.6265 24.9769C52.7357 24.9769 51.1976 26.5047 51.1976 28.3823V421.166C51.1976 423.044 52.7359 424.572 54.6265 424.572H324.532C326.423 424.572 327.961 423.044 327.961 421.166V28.3823C327.961 26.5045 326.423 24.9769 324.532 24.9769H54.6265Z" fill="#BFBAF5"/>
<path d="M373.061 1.03873H148.471C133.221 1.03873 120.859 13.3162 120.859 28.4612V137.008C120.859 152.153 133.221 164.43 148.471 164.43H373.061C388.311 164.43 400.674 152.153 400.674 137.008V28.4612C400.674 13.3162 388.311 1.03873 373.061 1.03873Z" fill="white"/>
<path d="M373.061 165.469H148.471C132.669 165.469 119.813 152.701 119.813 137.008V28.4612C119.813 12.7677 132.669 0 148.471 0H373.061C388.864 0 401.72 12.7677 401.72 28.4612V137.008C401.72 152.701 388.864 165.469 373.061 165.469ZM148.471 2.07746C133.822 2.07746 121.905 13.9132 121.905 28.4612V137.008C121.905 151.556 133.822 163.392 148.471 163.392H373.061C387.71 163.392 399.628 151.556 399.628 137.008V28.4612C399.628 13.9132 387.71 2.07746 373.061 2.07746H148.471Z" fill="#1D1768"/>
<path d="M305.086 142.305H222.938C216.881 142.305 211.953 137.411 211.953 131.395V63.7402C211.953 57.7247 216.881 52.8307 222.938 52.8307H305.086C311.143 52.8307 316.071 57.7247 316.071 63.7402V131.395C316.071 137.411 311.143 142.305 305.086 142.305ZM222.938 54.2851C217.688 54.2851 213.417 58.5266 213.417 63.7404V131.395C213.417 136.609 217.688 140.851 222.938 140.851H305.086C310.336 140.851 314.607 136.609 314.607 131.395V63.7402C314.607 58.5266 310.336 54.2849 305.086 54.2849H222.938V54.2851Z" fill="#1D1768"/>
<path d="M296.841 54.2851H235.015L235.107 53.4761C237.075 36.1956 250.325 23.1643 265.928 23.1643C281.53 23.1643 294.781 36.1956 296.749 53.4761L296.841 54.2851H296.841ZM236.663 52.8309H295.193C292.996 36.69 280.542 24.6187 265.928 24.6187C251.314 24.6187 238.86 36.69 236.663 52.8309H236.663Z" fill="#1D1768"/>
<path d="M138.308 322.871C175.48 322.871 205.614 292.945 205.614 256.029C205.614 219.113 175.48 189.187 138.308 189.187C101.137 189.187 71.0032 219.113 71.0032 256.029C71.0032 292.945 101.137 322.871 138.308 322.871Z" fill="white"/>
<path d="M138.308 323.806C120.079 323.806 102.941 316.756 90.0507 303.954C77.1607 291.153 70.0618 274.133 70.0618 256.029C70.0618 237.925 77.1607 220.905 90.0507 208.103C102.941 195.302 120.079 188.252 138.308 188.252C156.538 188.252 173.676 195.302 186.566 208.103C199.456 220.905 206.555 237.925 206.555 256.029C206.555 274.133 199.456 291.153 186.566 303.954C173.676 316.756 156.538 323.806 138.308 323.806ZM138.308 190.122C101.715 190.122 71.9444 219.687 71.9444 256.029C71.9444 292.37 101.715 321.936 138.308 321.936C174.902 321.936 204.672 292.37 204.672 256.029C204.672 219.687 174.902 190.122 138.308 190.122Z" fill="#1DC9FF"/>
<path d="M128.433 286.775C127.084 286.775 125.82 286.257 124.872 285.315C124.651 285.098 124.45 284.857 124.274 284.599C124.07 284.433 123.878 284.251 123.703 284.056L99.735 257.373C98.8424 256.38 98.3928 255.097 98.4696 253.76C98.5462 252.423 99.1396 251.199 100.141 250.312C101.06 249.496 102.249 249.047 103.488 249.047C104.928 249.047 106.299 249.655 107.251 250.715L128.627 274.513L176.729 226.743C177.677 225.801 178.942 225.283 180.29 225.283C181.638 225.283 182.902 225.801 183.85 226.743C184.799 227.683 185.321 228.939 185.321 230.279C185.321 231.619 184.799 232.873 183.85 233.815L131.994 285.315C131.046 286.257 129.782 286.775 128.433 286.775H128.433ZM103.488 251.125C102.764 251.125 102.069 251.387 101.534 251.862C100.949 252.379 100.603 253.095 100.558 253.878C100.513 254.661 100.775 255.411 101.296 255.99L125.263 282.673C125.39 282.814 125.533 282.945 125.687 283.061L125.841 283.176L125.942 283.338C126.058 283.523 126.195 283.693 126.348 283.844C126.903 284.395 127.643 284.698 128.433 284.698C129.222 284.698 129.962 284.395 130.515 283.846L182.371 232.346C182.924 231.796 183.229 231.062 183.229 230.279C183.229 229.496 182.925 228.76 182.371 228.212C181.818 227.663 181.079 227.36 180.289 227.36C179.5 227.36 178.761 227.663 178.208 228.211L128.539 277.537L105.689 252.097C105.134 251.479 104.332 251.124 103.488 251.124L103.488 251.125Z" fill="#8B83EA"/>
<path d="M363.375 293.178L261.208 452.569C258.478 456.827 259.741 462.477 264.03 465.188L376.183 536.091C380.471 538.802 386.16 537.548 388.89 533.289L491.057 373.899C493.787 369.64 492.524 363.99 488.236 361.279L376.083 290.376C371.794 287.665 366.105 288.92 363.375 293.178Z" fill="white"/>
<path d="M381.109 538.555C379.226 538.555 377.323 538.042 375.621 536.966L263.468 466.063C258.7 463.049 257.29 456.744 260.325 452.009L362.492 292.619C363.957 290.333 366.24 288.749 368.919 288.158C371.6 287.568 374.342 288.043 376.643 289.498L488.797 360.4C491.098 361.855 492.693 364.122 493.288 366.783C493.883 369.445 493.404 372.169 491.939 374.454L389.772 533.845C387.821 536.889 384.499 538.555 381.109 538.555L381.109 538.555ZM376.744 535.213C380.539 537.612 385.592 536.498 388.007 532.729L490.175 373.338C491.339 371.521 491.72 369.353 491.246 367.234C490.772 365.114 489.503 363.309 487.673 362.153L375.52 291.25C373.69 290.093 371.507 289.715 369.373 290.186C367.238 290.657 365.421 291.917 364.257 293.734L262.09 453.125C260.925 454.942 260.544 457.11 261.018 459.229C261.492 461.349 262.761 463.154 264.591 464.31L376.744 535.213Z" fill="#403994"/>
<path d="M305.114 424.338L285.075 455.601C284.33 456.763 284.675 458.303 285.844 459.043L304.058 470.558C305.228 471.297 306.78 470.955 307.524 469.794L327.563 438.53C328.308 437.369 327.963 435.828 326.794 435.089L308.58 423.574C307.41 422.834 305.858 423.176 305.114 424.338Z" fill="white"/>
<path d="M305.4 471.983C304.747 471.983 304.087 471.805 303.497 471.432L285.282 459.917C283.628 458.871 283.139 456.684 284.192 455.041L304.231 423.778C304.74 422.985 305.532 422.435 306.461 422.23C307.389 422.025 308.342 422.19 309.141 422.695L327.355 434.21C328.154 434.715 328.708 435.502 328.914 436.425C329.121 437.347 328.954 438.292 328.445 439.086L308.406 470.349C307.729 471.405 306.577 471.983 305.4 471.983ZM304.62 469.68C305.301 470.11 306.208 469.91 306.642 469.234L326.681 437.971C326.89 437.645 326.957 437.256 326.872 436.875C326.787 436.494 326.56 436.17 326.232 435.963L308.018 424.448C307.69 424.241 307.298 424.174 306.915 424.258C306.531 424.342 306.205 424.568 305.996 424.894L285.957 456.157C285.748 456.482 285.68 456.871 285.766 457.252C285.851 457.633 286.078 457.957 286.406 458.165L304.62 469.68V469.68Z" fill="#403994"/>
<path d="M327.131 486.996L325.482 489.617L327.093 490.984C327.172 490.813 327.244 490.652 327.403 490.398C327.736 489.869 328.185 489.413 328.707 489.149C329.355 488.801 330.23 488.728 331.103 489.269C332.454 490.108 332.794 491.803 331.856 493.294C331.384 494.044 330.772 494.546 330.353 494.742L329.786 494.067C330.136 493.887 330.701 493.459 331.094 492.835C331.646 491.958 331.543 490.851 330.617 490.276C329.716 489.732 328.705 489.927 327.841 491.302C327.595 491.693 327.445 492.026 327.317 492.299L324.275 489.794L326.344 486.507L327.131 486.996V486.996Z" fill="#403994"/>
<path d="M330.649 481.594L330.635 481.616L330.533 483.213L329.707 482.95L329.843 480.947L330.341 480.154L337.259 484.447L336.694 485.346L330.649 481.594L330.649 481.594Z" fill="#403994"/>
<path d="M336.616 471.922L334.966 474.544L336.577 475.911C336.656 475.739 336.728 475.578 336.887 475.324C337.22 474.796 337.67 474.34 338.191 474.075C338.839 473.728 339.714 473.654 340.587 474.195C341.939 475.034 342.278 476.729 341.34 478.22C340.868 478.97 340.256 479.472 339.837 479.668L339.27 478.993C339.62 478.813 340.186 478.385 340.578 477.762C341.13 476.884 341.027 475.777 340.101 475.202C339.201 474.658 338.19 474.854 337.325 476.228C337.079 476.619 336.929 476.952 336.801 477.226L333.76 474.721L335.828 471.434L336.616 471.922V471.922Z" fill="#403994"/>
<path d="M344.908 472.291L344.333 471.935L344.079 470.762C343.502 467.964 343.106 466.617 342.07 465.959C341.367 465.523 340.505 465.458 339.86 466.483C339.468 467.107 339.461 467.823 339.528 468.305L338.682 468.192C338.577 467.465 338.704 466.604 339.203 465.811C340.134 464.331 341.548 464.342 342.538 464.956C343.815 465.748 344.269 467.309 344.763 469.629L344.928 470.495L344.949 470.509L346.891 467.422L347.668 467.904L344.908 472.291L344.908 472.291Z" fill="#403994"/>
<path d="M351.55 449.084C351.419 449.267 351.277 449.517 351.153 449.808C350.48 451.418 351.07 452.857 352.109 453.722L352.128 453.691C351.898 453.092 351.896 452.297 352.375 451.536C353.14 450.32 354.561 450.012 355.913 450.851C357.18 451.637 357.812 453.22 356.914 454.647C355.989 456.116 354.235 456.364 352.436 455.248C351.074 454.403 350.305 453.249 350.049 452.15C349.844 451.229 349.972 450.25 350.411 449.317C350.541 449.016 350.677 448.777 350.783 448.608L351.55 449.084ZM355.375 451.825C354.385 451.21 353.436 451.401 352.897 452.257C352.545 452.817 352.57 453.553 352.911 454.117C352.977 454.247 353.089 454.375 353.26 454.48C354.412 455.166 355.578 455.17 356.19 454.198C356.696 453.394 356.364 452.439 355.375 451.825Z" fill="#403994"/>
<path d="M358.274 448.347C357.401 447.805 357.109 446.904 357.279 445.834L357.241 445.825C356.4 446.361 355.598 446.319 355.002 445.949C353.906 445.269 353.739 443.887 354.498 442.682C355.336 441.35 356.595 441.206 357.457 441.741C358.043 442.104 358.491 442.779 358.363 443.876L358.396 443.895C359.275 443.251 360.214 443.099 361.055 443.62C362.258 444.367 362.421 445.894 361.596 447.205C360.692 448.642 359.285 448.974 358.273 448.347H358.274ZM355.49 445.032C356.182 445.461 356.88 445.175 357.592 444.514C357.762 443.797 357.622 443.078 356.994 442.688C356.441 442.345 355.66 442.316 355.134 443.151C354.649 443.923 354.894 444.662 355.49 445.032V445.032ZM360.558 444.621C359.718 444.099 358.948 444.429 358.096 445.195C357.825 446.143 358.084 446.907 358.744 447.316C359.427 447.784 360.377 447.639 360.929 446.761C361.454 445.926 361.272 445.063 360.558 444.621Z" fill="#403994"/>
<path d="M360.713 433.061L361.331 433.444L365.749 440.346L365.144 441.308L360.9 434.529L360.878 434.516L358.764 437.878L357.987 437.395L360.713 433.062L360.713 433.061Z" fill="#403994"/>
<path d="M368.632 433.389C368.968 433.231 369.62 432.783 370.026 432.138C370.777 430.944 370.243 430.098 369.663 429.752C368.687 429.162 367.727 429.771 367.161 430.669L366.836 431.187L366.133 430.751L366.459 430.233C366.885 429.557 367.072 428.483 366.253 427.974C365.699 427.631 364.99 427.675 364.452 428.532C364.106 429.082 364.018 429.762 364.045 430.19L363.21 430.01C363.17 429.486 363.344 428.623 363.809 427.883C364.66 426.53 365.855 426.419 366.696 426.941C367.409 427.383 367.75 428.183 367.526 429.22L367.547 429.233C368.25 428.493 369.321 428.202 370.289 428.803C371.396 429.49 371.826 430.948 370.789 432.597C370.303 433.368 369.633 433.893 369.196 434.092L368.632 433.39L368.632 433.389Z" fill="#403994"/>
<path d="M388.695 404.709C388.842 404.522 388.967 404.276 389.135 403.939C389.399 403.354 389.495 402.708 389.369 402.086C389.239 401.373 388.839 400.669 388.099 400.034L388.079 400.065C388.308 400.736 388.239 401.458 387.807 402.145C387.029 403.382 385.593 403.593 384.412 402.86C383.103 402.048 382.545 400.394 383.43 398.988C384.314 397.582 386.009 397.428 387.776 398.525C389.298 399.469 390.043 400.637 390.277 401.723C390.466 402.575 390.327 403.503 389.946 404.295C389.786 404.667 389.611 404.969 389.461 405.184L388.695 404.709V404.709ZM384.926 401.901C385.789 402.436 386.721 402.295 387.227 401.491C387.619 400.868 387.616 400.189 387.354 399.689C387.302 399.583 387.216 399.485 387.067 399.393C385.885 398.66 384.708 398.532 384.096 399.504C383.597 400.297 383.947 401.293 384.926 401.9V401.901Z" fill="#403994"/>
<path d="M392.822 397.232C393.159 397.073 393.811 396.626 394.216 395.981C394.968 394.787 394.434 393.941 393.853 393.595C392.878 393.005 391.917 393.614 391.352 394.512L391.026 395.03L390.324 394.594L390.649 394.076C391.075 393.4 391.262 392.325 390.443 391.817C389.89 391.473 389.181 391.518 388.642 392.375C388.296 392.924 388.208 393.605 388.235 394.033L387.401 393.853C387.361 393.329 387.534 392.466 387.999 391.726C388.851 390.373 390.045 390.262 390.886 390.784C391.599 391.226 391.94 392.026 391.717 393.063L391.738 393.076C392.44 392.336 393.511 392.045 394.48 392.646C395.587 393.333 396.017 394.791 394.979 396.44C394.494 397.211 393.823 397.736 393.387 397.935L392.823 397.232L392.822 397.232Z" fill="#403994"/>
<path d="M398.499 390.585L397.925 390.228L397.671 389.056C397.093 386.258 396.698 384.91 395.661 384.252C394.959 383.816 394.097 383.752 393.452 384.777C393.059 385.4 393.053 386.117 393.119 386.599L392.273 386.485C392.168 385.758 392.296 384.897 392.794 384.104C393.726 382.624 395.14 382.635 396.13 383.249C397.407 384.042 397.86 385.602 398.354 387.922L398.519 388.789L398.541 388.802L400.483 385.715L401.26 386.197L398.5 390.584L398.499 390.585Z" fill="#403994"/>
<path d="M402.581 376.288C404.933 377.748 405.687 379.421 404.729 380.943C403.884 382.285 402.046 382.408 399.744 381.01C397.424 379.569 396.772 377.783 397.649 376.388C398.561 374.94 400.378 374.921 402.581 376.288ZM400.34 380.086C402.139 381.202 403.506 381.286 404.038 380.441C404.637 379.49 403.805 378.342 402.038 377.245C400.335 376.188 398.945 375.928 398.34 376.89C397.828 377.704 398.456 378.917 400.34 380.086Z" fill="#403994"/>
<path d="M415.273 364.771L413.39 363.601L411.381 366.794L410.764 366.411L408.275 360.604L408.907 359.6L413.207 362.268L413.812 361.306L414.547 361.762L413.942 362.724L415.825 363.893L415.273 364.771H415.273ZM412.655 363.146L410.345 361.713C409.984 361.488 409.628 361.253 409.28 361.007L409.26 361.039C409.531 361.501 409.723 361.856 409.922 362.244L411.217 365.384L411.238 365.397L412.655 363.146H412.655Z" fill="#403994"/>
<path d="M417.271 359.22C417.608 359.061 418.26 358.613 418.665 357.969C419.417 356.774 418.883 355.929 418.302 355.582C417.327 354.992 416.366 355.601 415.801 356.5L415.475 357.018L414.773 356.581L415.099 356.064C415.524 355.387 415.712 354.313 414.892 353.804C414.339 353.461 413.63 353.506 413.091 354.362C412.745 354.912 412.658 355.592 412.685 356.02L411.85 355.841C411.81 355.316 411.983 354.453 412.449 353.714C413.3 352.36 414.494 352.249 415.336 352.771C416.048 353.214 416.389 354.013 416.166 355.05L416.187 355.063C416.89 354.323 417.961 354.033 418.929 354.634C420.036 355.321 420.466 356.778 419.428 358.427C418.943 359.199 418.272 359.723 417.836 359.923L417.272 359.22L417.271 359.22Z" fill="#403994"/>
<path d="M422.949 352.572L422.374 352.215L422.12 351.043C421.542 348.245 421.147 346.897 420.111 346.24C419.408 345.804 418.546 345.739 417.901 346.764C417.509 347.388 417.502 348.104 417.569 348.586L416.723 348.473C416.617 347.746 416.745 346.884 417.244 346.092C418.175 344.612 419.589 344.622 420.579 345.237C421.856 346.029 422.31 347.59 422.804 349.91L422.969 350.776L422.99 350.789L424.932 347.703L425.709 348.185L422.949 352.572L422.949 352.572Z" fill="#403994"/>
<path d="M427.691 345.035L427.116 344.678L426.862 343.507C426.284 340.708 425.889 339.361 424.853 338.703C424.15 338.267 423.288 338.202 422.643 339.227C422.251 339.851 422.244 340.567 422.311 341.05L421.465 340.936C421.359 340.209 421.487 339.348 421.986 338.555C422.917 337.075 424.331 337.086 425.321 337.7C426.598 338.492 427.052 340.053 427.545 342.373L427.711 343.24L427.732 343.253L429.674 340.166L430.451 340.648L427.691 345.035L427.691 345.035Z" fill="#403994"/>
<path d="M257.962 420.659C257.667 422.172 256.255 422.934 243.156 425.61H180.687C183.284 420.233 189.807 406.739 201.875 400.853C225.517 389.324 259.587 412.294 257.962 420.659H257.962Z" fill="#403994"/>
<path d="M249.13 283.388C245.901 285.961 248.301 288.23 242.927 296.393C238.484 303.142 235.314 303.914 233.278 309.056C230.732 315.487 232.689 321.857 233.278 323.773C238.094 339.445 258.722 345.202 265.327 347.045C272.529 349.055 287.554 353.249 303.235 345.676C314.793 340.094 320.512 331.111 323.222 326.853C326.512 321.684 333.165 311.233 329.425 305.634C327.245 302.369 323.24 303.312 309.438 299.474C308.088 299.098 304.632 297.968 297.721 295.709C265.417 285.148 255.192 278.559 249.13 283.388H249.13Z" fill="white"/>
<path d="M283.823 350.55C275.952 350.55 269.307 348.695 265.185 347.545C258.382 345.646 237.678 339.869 232.778 323.924C231.053 318.311 231.057 313.245 232.791 308.866C233.937 305.973 235.4 304.448 237.253 302.518C238.77 300.937 240.49 299.145 242.489 296.109C245.302 291.837 245.945 289.219 246.415 287.307C246.844 285.559 247.154 284.296 248.803 282.983C253.335 279.372 259.653 281.667 274.92 287.213C280.979 289.415 288.519 292.154 297.884 295.216L297.926 295.229C304.795 297.475 308.242 298.602 309.578 298.973C314.825 300.432 318.684 301.205 321.502 301.769C326.233 302.716 328.392 303.148 329.861 305.347C333.788 311.226 326.95 321.967 323.664 327.13C320.902 331.469 315.155 340.497 303.463 346.143C296.587 349.463 289.846 350.55 283.823 350.55H283.823ZM249.457 283.793C248.086 284.885 247.84 285.89 247.431 287.554C246.943 289.538 246.276 292.256 243.365 296.678C241.313 299.793 239.558 301.622 238.01 303.235C236.236 305.083 234.835 306.543 233.764 309.247C232.119 313.402 232.123 318.238 233.778 323.621C238.511 339.022 258.801 344.684 265.468 346.545C272.62 348.541 287.503 352.695 303.005 345.209C314.43 339.692 320.069 330.833 322.779 326.575C325.948 321.597 332.541 311.239 328.989 305.921C327.76 304.082 325.867 303.703 321.295 302.787C318.461 302.22 314.58 301.443 309.296 299.974C307.938 299.596 304.483 298.466 297.599 296.216L297.557 296.202C288.176 293.135 280.627 290.393 274.561 288.189C259.686 282.785 253.529 280.549 249.457 283.793L249.457 283.793Z" fill="#1D1768"/>
<path d="M263.949 289.548C263.322 289.685 248.885 292.608 241.204 283.388C240.403 282.426 236.246 277.428 237.414 271.41C238.664 264.963 245.391 260.791 250.854 259.773C257.417 258.551 259.413 262.399 265.672 260.8C271.651 259.273 271.444 255.349 277.044 253.271C284.014 250.684 291.305 254.176 300.133 258.404C308.339 262.335 313.691 266.878 317.364 270.041C322.568 274.522 327.632 278.96 331.837 286.468C333.583 289.585 336.224 294.409 337.007 301.185C337.488 305.353 337.057 308.451 336.317 313.505C334.936 322.941 334.421 327.683 332.182 330.617C327.966 336.142 324.257 333.009 315.296 340.2C310.797 343.81 309.074 346.732 304.268 347.73C303.707 347.846 298.064 348.957 296.342 346.361C294.718 343.912 297.473 339.51 298.755 337.462C300.577 334.55 301.645 334.419 304.957 329.933C307.319 326.735 306.797 326.774 308.059 325.484C311.402 322.067 314.17 322.712 317.019 320.008C318.059 319.021 320.792 316.378 320.465 312.821C320.238 310.353 318.542 307.529 315.641 306.661C312.412 305.695 308.999 307.542 307.715 309.741C306.741 311.408 307.302 312.743 305.992 314.19C305.271 314.986 303.603 316.247 302.201 315.901C298.726 315.046 301.253 305.389 295.309 300.158C294.639 299.569 292.909 298.739 289.45 297.078C288.316 296.533 284.641 294.798 279.456 292.971C276.942 292.085 275.274 291.497 272.909 290.917C269.285 290.03 266.177 289.688 263.949 289.548Z" fill="#514C93"/>
<path d="M245.41 328.253C246.37 327.291 247.529 326.494 248.82 325.977C249.137 325.834 249.472 325.736 249.804 325.629C250.142 325.544 250.479 325.449 250.826 325.395C251.169 325.322 251.52 325.305 251.869 325.271C252.221 325.261 252.572 325.245 252.924 325.273C254.328 325.356 255.721 325.806 256.88 326.594C258.04 327.378 258.962 328.467 259.561 329.685C258.74 328.603 257.757 327.669 256.618 327.004C256.473 326.925 256.332 326.841 256.183 326.772C256.038 326.696 255.89 326.626 255.739 326.562C255.591 326.49 255.434 326.442 255.281 326.384C255.127 326.327 254.974 326.269 254.814 326.231C254.19 326.034 253.538 325.932 252.885 325.895C252.558 325.864 252.23 325.875 251.901 325.878C251.573 325.904 251.245 325.922 250.919 325.977C250.591 326.012 250.269 326.089 249.945 326.156L249.466 326.286C249.304 326.325 249.147 326.377 248.99 326.431C247.724 326.843 246.537 327.489 245.41 328.254V328.253Z" fill="#1D1768"/>
<path d="M239.826 328.906C226.199 323.733 222.363 324.492 210.189 318.297C206.134 316.233 204.933 315.321 194.337 309.741C189.627 307.26 185.454 305.235 177.106 301.185C166.543 296.059 164.642 295.324 161.598 295.367C159.857 295.391 151.437 295.51 148.158 301.869C146.308 305.458 147.708 309.166 150.527 316.407C154.079 325.534 159.042 332.332 164.355 339.516C166.707 342.695 167.882 344.285 168.835 345.334C182.807 360.704 202.135 356.371 206.398 367.237C208.02 371.371 206.801 376.022 206.053 378.874C204.805 383.639 203.035 384.54 199.161 392.563C196.509 398.057 195.182 400.804 194.681 404.542C194.475 406.08 193.596 412.634 196.749 418.574C198.98 422.777 202.952 426.148 213.98 430.21C227.283 435.11 238.424 436.436 243.961 437.055C276.007 440.634 271.745 436.82 284.28 440.135C286.005 440.591 289.602 441.617 292.207 439.793C295.103 437.764 293.433 433.542 294.619 425.419C296.108 415.215 300.218 413.104 299.788 404.542C299.556 399.921 297.333 396.712 298.065 396.328C298.841 395.921 300.833 399.629 305.646 404.542C308.938 407.902 309.819 408.017 317.708 414.809C321.747 418.286 322.433 419.046 323.911 420.285C331.363 426.535 342.65 428.758 364.92 432.948C368.004 433.528 370.767 434.009 373.535 432.606C378.583 430.047 382.922 422.902 380.427 416.863C379.029 413.476 375.895 411.746 374.569 411.044C350.103 398.1 342.374 394.251 335.283 389.483C333.253 388.118 327.382 383.098 315.64 373.056C303.511 362.683 303.163 361.956 299.099 359.024C291.345 353.429 287.895 352.671 271.185 344.65C247.521 333.29 250.896 333.109 239.825 328.906H239.826Z" fill="#B7B6E7"/>
<path d="M288.504 441.352C286.839 441.352 285.273 440.936 284.292 440.675L284.146 440.637C278.221 439.07 276.149 439.114 272.02 439.201C267.494 439.297 260.654 439.442 243.902 437.571C238.988 437.022 227.481 435.736 213.798 430.697C202.238 426.439 198.437 422.868 196.286 418.816C194.813 416.04 193.248 411.298 194.163 404.474C194.675 400.653 196.017 397.875 198.69 392.339C200.377 388.843 201.659 386.707 202.689 384.989C203.995 382.812 204.858 381.373 205.547 378.743C206.267 375.998 207.471 371.403 205.911 367.426C203.949 362.426 198.624 360.786 191.882 358.711C184.711 356.503 175.786 353.755 168.447 345.682C167.481 344.619 166.307 343.031 163.968 339.869L163.934 339.823C158.897 333.014 153.689 325.972 150.039 316.594C147.248 309.425 145.711 305.476 147.693 301.632C149.9 297.352 154.836 294.943 161.591 294.847C164.707 294.804 166.616 295.517 177.336 300.718C185.676 304.765 189.862 306.796 194.582 309.282C200.523 312.411 203.52 314.078 205.709 315.295C207.418 316.245 208.653 316.932 210.427 317.835C217.607 321.488 221.954 322.732 226.987 324.174C230.486 325.175 234.452 326.31 240.013 328.421C245.58 330.535 247.517 331.637 251.033 333.637C254.439 335.575 259.586 338.504 271.413 344.182C276.253 346.505 280.006 348.231 283.022 349.618C290.463 353.039 293.859 354.601 299.407 358.603C301.874 360.383 302.946 361.325 306.127 364.118C308.25 365.983 311.157 368.536 315.982 372.662L316 372.677C327.7 382.684 333.573 387.706 335.577 389.053C341.377 392.953 347.767 396.32 363.205 404.457C366.601 406.248 370.441 408.271 374.816 410.586C375.95 411.186 379.404 413.014 380.912 416.665C383.485 422.895 379.216 430.31 373.774 433.068C370.79 434.581 367.757 434.01 364.823 433.458C343.197 429.389 331.284 427.147 323.574 420.682C322.94 420.149 322.457 419.712 321.789 419.106C320.902 418.301 319.687 417.199 317.366 415.201C313.837 412.163 311.705 410.457 310.148 409.211C308.19 407.644 307.111 406.78 305.272 404.904C302.987 402.572 301.346 400.525 300.147 399.03C299.551 398.287 298.94 397.525 298.532 397.114C298.621 397.423 298.761 397.823 298.892 398.195C299.403 399.654 300.177 401.86 300.311 404.516C300.552 409.319 299.402 412.132 298.071 415.388C297.007 417.99 295.802 420.94 295.137 425.493C294.694 428.528 294.653 431.037 294.621 433.054C294.565 436.516 294.528 438.803 292.509 440.217C291.282 441.077 289.86 441.352 288.504 441.352L288.504 441.352ZM274.374 438.128C277.2 438.128 279.614 438.363 284.415 439.633L284.562 439.672C286.313 440.137 289.573 441.002 291.905 439.368C293.49 438.258 293.522 436.293 293.575 433.037C293.608 430.991 293.649 428.445 294.102 425.344C294.784 420.665 296.016 417.654 297.102 414.997C298.387 411.855 299.496 409.141 299.266 404.568C299.14 402.061 298.396 399.94 297.904 398.536C297.42 397.157 297.1 396.246 297.821 395.869C298.613 395.453 299.302 396.31 300.965 398.383C302.15 399.861 303.773 401.884 306.021 404.18C307.816 406.011 308.877 406.86 310.804 408.402C312.367 409.653 314.507 411.366 318.051 414.417C320.381 416.423 321.602 417.53 322.494 418.339C323.153 418.937 323.629 419.369 324.249 419.888C331.445 425.923 341.947 428.097 365.018 432.437C367.905 432.98 370.632 433.494 373.298 432.143C378.324 429.595 382.234 422.604 379.944 417.06C378.579 413.754 375.376 412.059 374.324 411.502C369.949 409.188 366.11 407.165 362.714 405.375C347.241 397.219 340.837 393.844 334.99 389.913C332.936 388.532 327.048 383.496 315.317 373.464L315.299 373.449C310.469 369.318 307.559 366.762 305.434 364.896C302.281 362.127 301.218 361.194 298.792 359.444C293.327 355.501 289.96 353.952 282.582 350.56C279.563 349.172 275.805 347.444 270.958 345.117C259.097 339.423 253.931 336.483 250.513 334.538C247.042 332.564 245.131 331.476 239.639 329.391C234.12 327.296 230.177 326.167 226.698 325.171C221.612 323.715 217.22 322.458 209.951 318.759C208.159 317.847 206.917 317.157 205.198 316.201C203.014 314.987 200.023 313.324 194.092 310.2C189.388 307.722 185.207 305.693 176.877 301.652C166.355 296.546 164.499 295.851 161.606 295.886C155.257 295.976 150.646 298.184 148.624 302.106C146.928 305.397 148.131 308.811 151.015 316.22C154.615 325.469 159.781 332.454 164.777 339.208L164.811 339.254C167.129 342.389 168.293 343.962 169.224 344.986C176.371 352.848 184.776 355.436 192.192 357.719C198.926 359.792 204.741 361.582 206.886 367.049C208.569 371.34 207.311 376.138 206.56 379.005C205.833 381.778 204.94 383.267 203.588 385.521C202.569 387.221 201.3 389.335 199.633 392.788C197.008 398.225 195.69 400.954 195.2 404.61C194.321 411.164 195.809 415.689 197.212 418.332C199.251 422.173 202.914 425.58 214.162 429.723C227.725 434.719 239.143 435.994 244.02 436.539C260.701 438.402 267.5 438.258 271.999 438.163C272.853 438.145 273.628 438.128 274.374 438.128L274.374 438.128Z" fill="white"/>
<path d="M198.628 360.535C199.83 360.65 201.005 360.845 202.174 361.056C203.342 361.271 204.501 361.509 205.656 361.757L209.111 362.515C209.686 362.639 210.261 362.76 210.839 362.867C211.419 362.975 211.995 363.066 212.599 363.069C212.032 363.295 211.407 363.344 210.804 363.376C210.196 363.398 209.59 363.371 208.989 363.323C207.788 363.221 206.603 363.024 205.434 362.772C204.265 362.519 203.11 362.209 201.973 361.845C200.836 361.476 199.713 361.064 198.627 360.535H198.628Z" fill="white"/>
<path d="M136.268 284.784C144.233 277.342 148.979 276.78 151.848 277.667C155.382 278.759 157.9 282.614 159.637 281.689C161.173 280.872 159.912 277.483 162.13 275.81C163.304 274.924 165.208 274.705 166.181 275.5C167.423 276.515 166.725 278.834 166.181 282.618C165.216 289.327 166.309 289.999 165.558 292.52C163.709 298.725 153.85 306.159 144.993 302.422C138.78 299.801 134.931 292.473 136.268 284.784L136.268 284.784Z" fill="white"/>
<path d="M149.999 303.939C148.191 303.939 146.431 303.594 144.788 302.901C138.201 300.122 134.401 292.466 135.752 284.696L135.782 284.525L135.909 284.406C142.424 278.319 147.839 275.884 152.003 277.171C153.715 277.7 155.149 278.803 156.415 279.777C157.667 280.741 158.749 281.573 159.39 281.232C159.856 280.984 159.956 280.201 160.071 279.295C160.234 278.021 160.436 276.435 161.814 275.396C163.085 274.437 165.277 274.089 166.513 275.1C167.757 276.116 167.456 277.96 167.001 280.75C166.902 281.363 166.798 281.996 166.698 282.692C166.176 286.323 166.264 288.151 166.329 289.486C166.383 290.624 166.423 291.446 166.059 292.668C164.95 296.388 161.232 300.281 156.807 302.353C154.554 303.408 152.24 303.939 149.998 303.939H149.999ZM136.754 285.043C135.569 292.284 139.1 299.373 145.197 301.945C149.559 303.785 153.676 302.672 156.362 301.414C160.533 299.46 164.027 295.827 165.056 292.373C165.37 291.319 165.336 290.61 165.284 289.536C165.218 288.159 165.127 286.274 165.663 282.544C165.765 281.839 165.874 281.173 165.969 280.584C166.366 278.148 166.629 276.539 165.849 275.901C165.101 275.29 163.48 275.444 162.447 276.223C161.419 276.998 161.262 278.232 161.109 279.425C160.964 280.567 160.826 281.646 159.884 282.147C158.646 282.806 157.315 281.783 155.774 280.598C154.579 279.678 153.224 278.636 151.692 278.162C147.941 277.004 142.916 279.318 136.754 285.043L136.754 285.043Z" fill="#1D1768"/>
<path d="M377.505 410.716C377.99 410.317 383.358 405.962 385.287 407.395C386.375 408.202 386.417 410.88 385.287 412.037C384.71 412.628 383.884 412.717 383.903 412.793C383.928 412.897 386.305 411.736 388.68 411.968C390.827 412.178 393.1 413.536 394.289 415.544C396.694 419.602 393.58 424.469 393.043 425.309C390.175 429.791 385.259 430.748 384.526 430.879C379.036 431.858 371.688 429.396 370.123 424.071C368.401 418.209 374.864 412.89 377.505 410.716Z" fill="white"/>
<path d="M382.081 431.607C376.803 431.607 371.013 428.954 369.621 424.217C367.802 418.027 374.368 412.624 377.172 410.317C378.61 409.133 383.469 405.396 385.601 406.979C386.172 407.404 386.546 408.219 386.626 409.216C386.683 409.93 386.587 410.839 386.211 411.609C386.977 411.458 387.853 411.366 388.732 411.451C391.143 411.687 393.501 413.19 394.74 415.281C397.057 419.192 394.634 423.791 393.484 425.588C390.655 430.01 385.983 431.147 384.618 431.391C383.801 431.536 382.948 431.608 382.081 431.608L382.081 431.607ZM377.839 411.116C375.194 413.293 368.999 418.391 370.625 423.925C372.09 428.912 379.077 431.323 384.433 430.368C385.329 430.208 389.933 429.2 392.601 425.03C393.648 423.395 395.863 419.224 393.838 415.807C392.78 414.021 390.687 412.686 388.629 412.485C386.958 412.322 385.227 412.915 384.489 413.169C384.049 413.32 383.885 413.377 383.657 413.254L383.454 413.144L383.395 412.918C383.274 412.427 383.771 412.264 383.934 412.21C384.185 412.128 384.604 411.99 384.912 411.675C385.396 411.18 385.659 410.247 385.584 409.298C385.529 408.62 385.296 408.05 384.974 407.811C383.771 406.917 380.048 409.299 377.839 411.116L377.839 411.116Z" fill="#1D1768"/>
<path d="M24.2633 40.4712C22.5292 40.4712 21.1184 39.0702 21.1184 37.348C21.1184 35.6258 22.5292 34.2247 24.2633 34.2247C25.9975 34.2247 27.4082 35.6258 27.4082 37.348C27.4082 39.0702 25.9975 40.4712 24.2633 40.4712ZM24.2633 35.0557C22.9906 35.0557 21.9552 36.084 21.9552 37.348C21.9552 38.6119 22.9906 39.6402 24.2633 39.6402C25.536 39.6402 26.5715 38.6119 26.5715 37.348C26.5715 36.084 25.536 35.0557 24.2633 35.0557Z" fill="white"/>
<path d="M357.232 272.815C355.498 272.815 354.087 271.414 354.087 269.692C354.087 267.97 355.498 266.569 357.232 266.569C358.966 266.569 360.377 267.97 360.377 269.692C360.377 271.414 358.966 272.815 357.232 272.815ZM357.232 267.4C355.959 267.4 354.924 268.428 354.924 269.692C354.924 270.956 355.959 271.984 357.232 271.984C358.505 271.984 359.54 270.956 359.54 269.692C359.54 268.428 358.505 267.4 357.232 267.4Z" fill="white"/>
<path d="M8.41083 361.202C8.83338 358.246 9.52473 358.246 9.94729 361.202C10.3698 364.157 13.1503 366.918 16.1262 367.338C19.1021 367.758 19.1021 368.444 16.1262 368.864C13.1503 369.283 10.3698 372.045 9.94729 375C9.52473 377.956 8.83338 377.956 8.41083 375C7.98827 372.045 5.20778 369.283 2.23191 368.864C-0.743968 368.444 -0.743968 367.758 2.23191 367.338C5.20778 366.918 7.98827 364.157 8.41083 361.202Z" fill="white"/>
<path d="M431.599 30.2994C432.022 27.344 432.713 27.344 433.136 30.2994C433.558 33.2548 436.339 36.0161 439.314 36.4358C442.29 36.8554 442.29 37.542 439.314 37.9617C436.339 38.3813 433.558 41.1427 433.136 44.0981C432.713 47.0535 432.022 47.0535 431.599 44.0981C431.176 41.1427 428.396 38.3813 425.42 37.9617C422.444 37.542 422.444 36.8554 425.42 36.4358C428.396 36.0161 431.176 33.2548 431.599 30.2994Z" fill="white"/>
</svg>
